<?xml version="1.0" standalone="no"?>
<!DOCTYPE svg PUBLIC "-//W3C//DTD SVG 20010904//EN" "http://www.w3.org/TR/2001/REC-SVG-20010904/DTD/svg10.dtd">
<!-- Created using Krita: https://krita.org -->
<svg xmlns="http://www.w3.org/2000/svg" 
    xmlns:xlink="http://www.w3.org/1999/xlink"
    xmlns:krita="http://krita.org/namespaces/svg/krita"
    xmlns:sodipodi="http://sodipodi.sourceforge.net/DTD/sodipodi-0.dtd"
    width="153.6pt"
    height="153.6pt"
    viewBox="0 0 153.6 153.6">
<defs/>
<path id="shape0" transform="translate(25.3121121419572, 48.4521592852072)" fill="none" stroke="#000000" stroke-width="2.4" stroke-linecap="square" stroke-linejoin="bevel" d="M0 43.265C1.24098 25.8549 5.2007 7.29877 21.2291 6.16606L13.5284 0C14.0944 0.861631 23.9399 -1.83741 37.505 10.7072C37.2061 18.7497 30.8813 22.9848 25.5262 28.3478C26.2982 22.5196 26.3938 18.1233 22.8643 17.1298C6.58473 19.1655 6.87792 33.6933 0 43.265Z" sodipodi:nodetypes="ccccccc"/><path id="shape1" transform="translate(45.0260220948247, 66.7369502618474)" fill="none" stroke="#000000" stroke-width="1.2" stroke-linecap="square" stroke-linejoin="bevel" d="M15.5739 19.0804C11.0483 26.7246 3.40391 25.662 1.31837 22.3355C-2.10063 20.3148 0.946362 11.0616 12.6214 12.7298C10.8868 13.7393 10.8653 15.0253 12.5571 16.5879C15.0947 18.9318 16.9952 18.563 19.7427 18.7554C22.4902 18.9478 25.6036 17.5325 28.6888 15.6168C31.774 13.7011 36.5079 7.74708 36.3516 6.46604C36.1952 5.185 37.6693 2.81135 34.0509 0.740413C31.6386 -0.640214 28.8879 -0.090029 25.7988 2.39097" sodipodi:nodetypes="ccczzzzzc"/><path id="shape2" transform="translate(41.8705064974108, 76.0650138575617)" fill="none" stroke="#000000" stroke-width="1.2" stroke-linecap="square" stroke-linejoin="miter" stroke-miterlimit="2" d="M22.7993 5.9805C18.9702 -4.67173 -0.928202 0.0576117 0.0337356 11.1335C2.30332 21.8394 19.2218 20.3024 22.5102 10.0208" sodipodi:nodetypes="ccc"/><path id="shape3" transform="translate(60.4279084645669, 70.2418399142087)" fill="none" stroke="#000000" stroke-width="1.2" stroke-linecap="square" stroke-linejoin="miter" stroke-miterlimit="2" d="M0 11.0387C0.548088 12.4169 3.70175 13.2476 6.6586 12.3215C9.61544 11.3953 13.2864 8.96407 15.4011 6.55816C21.2747 -0.0545699 15.1221 -1.5756 10.8736 1.58459" sodipodi:nodetypes="cccc"/><path id="shape4" transform="translate(67.1246253949499, 56.7203877353157)" fill="none" stroke="#000000" stroke-width="1.2" stroke-linecap="square" stroke-linejoin="miter" stroke-miterlimit="2" d="M7.70983 20.8054C-2.84865 21.3138 -0.896406 7.6829 3.73117 4.85149C4.7907 3.05417 12.1451 -2.02288 16.1211 0.875163C21.4313 2.79131 16.3348 16.0609 14.36 17.0019" sodipodi:nodetypes="cccc"/><path id="shape5" transform="translate(69.9521694714956, 60.015124175522)" fill="none" stroke="#000000" stroke-width="1.2" stroke-linecap="square" stroke-linejoin="miter" stroke-miterlimit="2" d="M7.60363 13.2154C0.831812 17.5216 -3.17324 10.3996 3.21619 3.14744C7.68855 -0.663152 9.70358 0.0829957 10.9477 0.021649C13.9446 -0.0887745 12.9309 6.0959 11.5609 8.91583" sodipodi:nodetypes="cccc"/><path id="shape6" transform="translate(57.2683612204724, 79.4421732283464)" fill="none" stroke="#000000" stroke-width="1.2" stroke-linecap="square" stroke-linejoin="miter" stroke-miterlimit="2" d="M0 0C1.2619 0.12442 2.52523 0.486561 3.01165 1.70532" sodipodi:nodetypes="cc"/><path id="shape7" transform="translate(59.8027214566929, 71.4628346456693)" fill="none" stroke="#000000" stroke-width="1.2" stroke-linecap="square" stroke-linejoin="miter" stroke-miterlimit="2" d="M7.1594 0C4.46576 1.80145 2.23975 3.85045 0 5.87839" sodipodi:nodetypes="cc"/><path id="shape8" transform="translate(63.3925049212598, 74.6527559055118)" fill="none" stroke="#000000" stroke-width="1.2" stroke-linecap="square" stroke-linejoin="miter" stroke-miterlimit="2" d="M4.41328 0L0 3.57392" sodipodi:nodetypes="cc"/>
</svg>
