<?xml version="1.0" standalone="no"?>
<!DOCTYPE svg PUBLIC "-//W3C//DTD SVG 20010904//EN" "http://www.w3.org/TR/2001/REC-SVG-20010904/DTD/svg10.dtd">
<!-- Created using Krita: https://krita.org -->
<svg xmlns="http://www.w3.org/2000/svg" 
    xmlns:xlink="http://www.w3.org/1999/xlink"
    xmlns:krita="http://krita.org/namespaces/svg/krita"
    xmlns:sodipodi="http://sodipodi.sourceforge.net/DTD/sodipodi-0.dtd"
    width="153.6pt"
    height="153.6pt"
    viewBox="0 0 153.6 153.6">
<defs/>
<path id="shape0" transform="translate(34.8274285650369, 84.1867666109686)" fill="none" stroke="#000000" stroke-width="2.4" stroke-linecap="square" stroke-linejoin="bevel" d="M9.02254 0.0934577C16.3525 -0.741399 20.9225 4.13122 22.5462 10.1464C16.2588 15.5628 9.6256 22.5521 0.00189722 23.9692C-0.113725 14.0787 5.07933 6.49199 9.02254 0.0934577Z" sodipodi:nodetypes="cccc"/><path id="shape1" transform="translate(43.5896653543307, 44.7541417322835)" fill="none" stroke="#000000" stroke-width="2.4" stroke-linecap="square" stroke-linejoin="bevel" d="M0 40.1114L33.2103 0C40.7458 1.43973 44.6169 5.51444 46.6269 10.9274L13.6264 50.0228C12.1071 45.0258 8.50397 38.9703 0 40.1114Z" sodipodi:nodetypes="ccccc"/><path id="shape2" transform="translate(76.5647145669291, 37.0852360719641)" fill="none" stroke="#000000" stroke-width="2.4" stroke-linecap="square" stroke-linejoin="bevel" d="M0 8.02038L6.20334 0.0518348C14.2592 -0.536265 18.3335 3.93151 19.4936 10.828L13.2283 18.889C11.3049 11.9526 6.39791 9.07471 0 8.02038Z" sodipodi:nodetypes="ccccc"/><path id="shape3" transform="translate(35.2365228490083, 98.0118148228505)" fill="#000000" fill-rule="evenodd" stroke="#000000" stroke-width="2.4" stroke-linecap="square" stroke-linejoin="bevel" d="M0 9.74939L1.43555 0L7.81473 0.363464L9.86823 5.84963Z" sodipodi:nodetypes="ccccc"/>
</svg>
